<svg width="153" height="136" viewBox="0 0 153 136" fill="none" xmlns="http://www.w3.org/2000/svg">
<g filter="url(#filter0_d_11_9)">
<path fill-rule="evenodd" clip-rule="evenodd" d="M61.7002 0.0122917C62.9535 0.0245689 65.0412 0.0122853 66.2002 0.0122858H98.2002L73.1128 16.0123H65.6128C64.0806 16.0123 60.9553 16.026 59.6128 16.0123C57.024 15.9859 54.4541 16.4243 52.1128 16.5123C48.6128 17.5123 48.2002 17.5123 46.2002 18.5123C42.7002 20.2623 39.1542 23.479 36.2917 32.0664C35.6128 39.5123 37.1128 44.0123 40.3591 48.0047C42.4332 50.0788 44.8482 51.704 46.9696 52.7888C48.0225 53.3272 48.9124 53.686 49.55 53.8932C49.7914 53.9716 52.8607 55.0124 55.7002 55.0433C59.0509 55.0797 65.7002 55.0122 77.6535 55.0433C83.7836 55.2935 89.7564 55.5437 94.1962 55.7313C96.4163 55.8251 98.2534 55.9032 99.5356 55.9579L101.544 56.0439L101.545 56.044C101.545 56.044 101.546 56.044 101.202 64.0366C102.542 56.1495 102.545 56.1501 102.548 56.1506L102.555 56.1519L102.572 56.1547L102.611 56.1616C102.641 56.1669 102.678 56.1734 102.72 56.1812C102.806 56.1969 102.916 56.2177 103.051 56.2443C103.319 56.2973 103.683 56.3732 104.129 56.4755C105.019 56.6796 106.748 56.5633 108.2 57.0123C111.075 57.9009 114.729 59.1674 118.7 61.5123C126.2 66.5123 135.54 75.7531 135.2 90.7185C134.897 104.057 129.573 112.631 123.009 117.986C117.962 122.103 111.765 124.328 109.638 125.091C109.298 125.213 109.062 125.298 108.951 125.347C106.7 126.012 105.039 126.427 103.766 126.565C102.199 126.734 100.4 126.828 98.5498 126.878C94.8321 126.977 90.2002 127.012 86.2002 127.012C82.2002 127.012 77.7002 127.012 74.7002 127.012C73.2145 126.933 72.0587 127.064 71.2002 127.012C70.7709 126.986 70.4317 127.027 70.2002 127.012H56.2002C56.2002 127.012 58.7814 125.292 65.2002 121.012C72.7002 116.012 73.7002 115.512 73.7002 115.512L77.2002 113.512L79.7002 112.012L81.2002 111.012C82.2002 111.012 81.7002 111.012 83.2002 111.012C86.2002 111.012 86.2002 111.012 90.2002 111.012C94.2002 111.012 94.7002 111.012 98.2002 111.012C99.8422 110.968 101.084 110.761 102.047 110.657C102.468 110.612 102.73 110.57 102.867 110.546C103.773 110.158 104.645 109.831 105.5 109.51C107.965 108.585 110.29 107.713 112.895 105.588C115.7 103.012 118.2 99.0123 118.7 90.5123C118.2 83.5123 115.476 78.9685 110.322 75.9253C107.731 74.3952 105.279 73.1549 103.2 72.5122C102.176 72.1956 101.109 72.1983 100.551 72.0704C100.438 72.0445 100.337 72.0221 100.249 72.0031L98.8533 71.9434C97.573 71.8888 95.7383 71.8107 93.5208 71.717C89.0856 71.5296 82.8201 71.9668 76.7002 71.717C63.7002 71.717 59.9864 71.717 57.7002 71.717C55.8374 71.717 53.2002 71.8705 51.7002 71.717C49.7002 71.5123 47.254 71.0991 45.2002 70.5123C41.7002 69.5123 36.7002 67.5123 33.2002 64.5123C25.6648 58.0534 18.2002 49.0123 19.7002 32.0664C21.2002 15.1206 32.4174 5.07651 41.7002 2.01223C45.7876 0.512243 52.0789 0.0122895 53.2002 0.0122345C54.7002 0.012161 58.8842 -0.0152944 61.7002 0.0122917ZM99.8315 71.9183C99.8271 71.9175 99.8288 71.9178 99.8362 71.9192L99.8315 71.9183ZM101.202 64.0366L102.542 56.1495L102.047 56.0655L101.545 56.044L101.202 64.0366Z" fill="url(#paint0_linear_11_9)"/>
<path fill-rule="evenodd" clip-rule="evenodd" d="M77.2002 28.5122L120.2 0.512235H148.7L81.2002 44.0122H54.7002C50.2819 44.0122 46.7002 40.4305 46.7002 36.0122C46.7002 31.594 50.2819 28.5122 54.7002 28.5122H77.2002Z" fill="#A64646"/>
<path fill-rule="evenodd" clip-rule="evenodd" d="M77.2002 28.5122L120.2 0.512235H148.7L81.2002 44.0122H54.7002C50.2819 44.0122 46.7002 40.4305 46.7002 36.0122C46.7002 31.594 50.2819 28.5122 54.7002 28.5122H77.2002Z" fill="url(#paint1_linear_11_9)"/>
<path fill-rule="evenodd" clip-rule="evenodd" d="M75.393 99.1728L32.4998 127.336L4 127.444L71.3341 83.6881L97.8339 83.5873C102.252 83.5705 105.848 87.1386 105.864 91.5569C105.881 95.9751 102.311 99.0704 97.8929 99.0872L75.393 99.1728Z" fill="url(#paint2_linear_11_9)"/>
</g>
<defs>
<filter id="filter0_d_11_9" x="0" y="0" width="152.7" height="135.444" filterUnits="userSpaceOnUse" color-interpolation-filters="sRGB">
<feFlood flood-opacity="0" result="BackgroundImageFix"/>
<feColorMatrix in="SourceAlpha" type="matrix" values="0 0 0 0 0 0 0 0 0 0 0 0 0 0 0 0 0 0 127 0" result="hardAlpha"/>
<feOffset dy="4"/>
<feGaussianBlur stdDeviation="2"/>
<feComposite in2="hardAlpha" operator="out"/>
<feColorMatrix type="matrix" values="0 0 0 0 0 0 0 0 0 0 0 0 0 0 0 0 0 0 0.25 0"/>
<feBlend mode="normal" in2="BackgroundImageFix" result="effect1_dropShadow_11_9"/>
<feBlend mode="normal" in="SourceGraphic" in2="effect1_dropShadow_11_9" result="shape"/>
</filter>
<linearGradient id="paint0_linear_11_9" x1="76.3501" y1="0" x2="76.3501" y2="127.444" gradientUnits="userSpaceOnUse">
<stop offset="0.0459998" stop-color="#6010DD"/>
<stop offset="0.941" stop-color="#6C14AB"/>
</linearGradient>
<linearGradient id="paint1_linear_11_9" x1="129.03" y1="1.42903" x2="-3.3626" y2="37.6998" gradientUnits="userSpaceOnUse">
<stop stop-color="#580DE4"/>
<stop offset="1" stop-color="#6D13DA"/>
</linearGradient>
<linearGradient id="paint2_linear_11_9" x1="76.3501" y1="0" x2="76.3501" y2="127.444" gradientUnits="userSpaceOnUse">
<stop stop-color="#6211BD"/>
<stop offset="1" stop-color="#6C14AB"/>
</linearGradient>
</defs>
</svg>
