<?xml version="1.0" encoding="UTF-8"?>
<svg version="1.1" xmlns="http://www.w3.org/2000/svg" width="512" height="512">
<path d="M0 0 C1.52728659 -0.00668677 1.52728659 -0.00668677 3.08542746 -0.01350862 C4.20738888 -0.01332426 5.3293503 -0.01313989 6.48531055 -0.01294994 C7.67462659 -0.01662663 8.86394263 -0.02030332 10.08929855 -0.02409142 C13.39634904 -0.03322025 16.7033499 -0.03782839 20.01040828 -0.04048073 C23.57496689 -0.04438347 27.13951112 -0.05396184 30.70406055 -0.0626936 C39.31545191 -0.08245905 47.92684443 -0.09252439 56.5382528 -0.10142139 C60.59323609 -0.10580422 64.64821808 -0.11117105 68.70320034 -0.11641026 C82.18247901 -0.13342274 95.66175686 -0.14791695 109.14104462 -0.155159 C112.63924822 -0.1570689 116.13745182 -0.15898923 119.6356554 -0.16094494 C120.93985219 -0.16167055 120.93985219 -0.16167055 122.27039639 -0.16241082 C136.35540296 -0.17071126 150.4403246 -0.19604831 164.52529409 -0.22852562 C178.98506808 -0.2615954 193.44479892 -0.27960769 207.90461093 -0.28280324 C216.02365307 -0.28496843 224.14257137 -0.29371836 232.26157665 -0.31926441 C239.17610514 -0.34097033 246.09047971 -0.34902241 253.0050384 -0.33929763 C256.53215979 -0.33475254 260.05896361 -0.33665082 263.58604145 -0.35605907 C267.41270368 -0.37693369 271.23892839 -0.36670656 275.06563282 -0.35352612 C276.17644063 -0.36449536 277.28724844 -0.37546461 278.4317171 -0.38676625 C285.71991041 -0.32612099 291.51856736 0.60539093 296.93277454 5.95062733 C297.29500111 6.52683826 297.65722767 7.1030492 298.03043079 7.69672108 C298.41070423 8.27551014 298.79097767 8.8542992 299.18277454 9.45062733 C301.32887901 13.42046006 301.22114005 16.85674567 301.22715187 21.29019165 C301.2295041 22.02738734 301.23185633 22.76458303 301.23427984 23.52411798 C301.24097863 26.01389249 301.24051135 28.50361493 301.24010181 30.99339771 C301.24339989 32.78869911 301.24712534 34.58399976 301.25124329 36.37929946 C301.26127778 41.3281638 301.26498241 46.27701601 301.2676326 51.22588909 C301.27153135 56.55733277 301.28110996 61.88876681 301.28984547 67.22020435 C301.30962174 80.10304775 301.31967743 92.98589194 301.32857326 105.86874673 C301.33295413 111.93206488 301.33832145 117.99538215 301.34356213 124.05869961 C301.36057534 144.20851142 301.37507031 164.35832267 301.38231087 184.50814056 C301.38422083 189.73888811 301.38614116 194.96963566 301.38809681 200.20038319 C301.38858055 201.50049624 301.38906429 202.80060929 301.38956269 204.14011971 C301.39786595 225.20896135 301.42320746 246.27774626 301.45567749 267.34656312 C301.48872525 288.96609512 301.50675755 310.58559827 301.50995511 332.20515567 C301.51212229 344.34835756 301.52090139 356.49147673 301.54641628 368.63465405 C301.56809206 378.97472313 301.57618907 389.3146894 301.5664495 399.65477862 C301.5618958 404.93169028 301.56385324 410.20838968 301.58321095 415.48527241 C301.60077884 420.31591344 301.59989678 425.14618634 301.58431365 429.97683094 C301.58192788 431.72452117 301.58631116 433.47223647 301.5981423 435.21988829 C301.71393521 453.4535908 301.71393521 453.4535908 295.27652454 459.97406483 C294.70031361 460.33629139 294.12410267 460.69851795 293.53043079 461.07172108 C292.95164173 461.45199451 292.37285267 461.83226795 291.77652454 462.22406483 C288.50994926 463.98998604 285.82230266 464.26106421 282.18586159 464.26844215 C281.16767052 464.2729 280.14947946 464.27735784 279.10043412 464.28195077 C277.9784727 464.28176641 276.85651128 464.28158205 275.70055103 464.2813921 C274.511235 464.28506879 273.32191896 464.28874547 272.09656304 464.29253358 C268.78951255 464.3016624 265.48251169 464.30627054 262.17545331 464.30892289 C258.6108947 464.31282562 255.04635047 464.32240399 251.48180103 464.33113575 C242.87040968 464.3509012 234.25901715 464.36096655 225.64760879 464.36986354 C221.59262549 464.37424637 217.53764351 464.3796132 213.48266125 464.38485241 C200.00338258 464.40186489 186.52410473 464.4163591 173.04481697 464.42360115 C169.54661336 464.42551105 166.04840977 464.42743139 162.55020618 464.42938709 C161.68074166 464.42987083 160.81127713 464.43035457 159.9154652 464.43085297 C145.83045863 464.43915341 131.74553698 464.46449047 117.6605675 464.49696777 C103.2007935 464.53003755 88.74106267 464.54804984 74.28125066 464.55124539 C66.16220852 464.55341058 58.04329022 464.56216051 49.92428493 464.58770657 C43.00975645 464.60941249 36.09538188 464.61746456 29.18082318 464.60773978 C25.6537018 464.60319469 22.12689798 464.60509298 18.59982014 464.62450123 C14.77315791 464.64537585 10.94693319 464.63514871 7.12022877 464.62196827 C6.00942096 464.63293752 4.89861314 464.64390676 3.75414449 464.65520841 C-3.53404883 464.59456314 -9.33270577 463.66305122 -14.74691296 458.31781483 C-15.10913952 457.74160389 -15.47136608 457.16539295 -15.84456921 456.57172108 C-16.22484264 455.99293201 -16.60511608 455.41414295 -16.99691296 454.81781483 C-19.14301743 450.8479821 -19.03527846 447.41169648 -19.04129028 442.9782505 C-19.04364251 442.24105482 -19.04599474 441.50385913 -19.04841825 440.74432418 C-19.05511705 438.25454966 -19.05464977 435.76482723 -19.05424023 433.27504444 C-19.0575383 431.47974305 -19.06126375 429.68444239 -19.06538171 427.88914269 C-19.0754162 422.94027835 -19.07912082 417.99142614 -19.08177102 413.04255307 C-19.08566976 407.71110938 -19.09524837 402.37967534 -19.10398388 397.0482378 C-19.12376015 384.16539441 -19.13381584 371.28255021 -19.14271167 358.39969543 C-19.14709255 352.33637728 -19.15245986 346.27306 -19.15770054 340.20974255 C-19.17471375 320.05993074 -19.18920872 299.91011948 -19.19644928 279.76030159 C-19.19835925 274.52955404 -19.20027957 269.2988065 -19.20223522 264.06805897 C-19.20296083 262.11788939 -19.20296083 262.11788939 -19.2037011 260.12832244 C-19.21200436 239.05948081 -19.23734587 217.99069589 -19.2698159 196.92187903 C-19.30286366 175.30234703 -19.32089596 153.68284388 -19.32409352 132.06328648 C-19.3262607 119.92008459 -19.3350398 107.77696542 -19.3605547 95.63378811 C-19.38223047 85.29371903 -19.39032749 74.95375276 -19.38058791 64.61366353 C-19.37603421 59.33675187 -19.37799165 54.06005248 -19.39734936 48.78316975 C-19.41491725 43.95252872 -19.41403519 39.12225581 -19.39845207 34.29161122 C-19.39606629 32.54392098 -19.40044957 30.79620568 -19.41228072 29.04855386 C-19.52807362 10.81485136 -19.52807362 10.81485136 -13.09066296 4.29437733 C-12.51445202 3.93215076 -11.93824108 3.5699242 -11.34456921 3.19672108 C-10.47638561 2.62631092 -10.47638561 2.62631092 -9.59066296 2.04437733 C-6.32408767 0.27845612 -3.63644108 0.00737794 0 0 Z " fill="#E5E5E5" transform="translate(114.9070692062378,23.865778923034668)"/>
<path d="M0 0 C0.64472763 -0.00540298 1.28945526 -0.01080597 1.95372009 -0.01637268 C4.06793266 -0.0287984 6.18076674 -0.01241263 8.29492188 0.00561523 C9.77412995 0.0054601 11.25333844 0.00396873 12.73254395 0.00120544 C15.82594878 -0.00017578 18.9188884 0.01233227 22.01220703 0.03515625 C25.96658005 0.06354057 29.92018072 0.0608001 33.8746109 0.04806614 C36.92708876 0.04109311 39.97938982 0.04891665 43.03184509 0.06132317 C44.48940858 0.06582193 45.94699115 0.0661883 47.40455627 0.06225777 C49.4458776 0.0593294 51.48615481 0.0759274 53.52734375 0.09765625 C54.68617065 0.10305923 55.84499756 0.10846222 57.03894043 0.11402893 C62.00103994 0.7105769 65.23944313 2.3667528 68.57617188 6.06420898 C71.44875116 10.21349017 71.41756258 13.33226137 71.42480469 18.25268555 C71.43225204 19.45298653 71.43225204 19.45298653 71.43984985 20.67753601 C71.45448865 23.33247734 71.46127718 25.98735887 71.46679688 28.64233398 C71.47254799 30.48598228 71.47830572 32.32963055 71.48406982 34.17327881 C71.49458543 38.04366332 71.50042408 41.91402703 71.50390625 45.78442383 C71.50938477 50.73872873 71.53339666 55.69275793 71.5618782 60.64697647 C71.58052493 64.45773107 71.58571132 68.26841964 71.58724213 72.079216 C71.59026582 73.90522515 71.59828477 75.73123322 71.61142731 77.55719757 C71.62852645 80.11606121 71.62659796 82.67425633 71.62011719 85.2331543 C71.62933197 85.98455185 71.63854675 86.7359494 71.64804077 87.51011658 C71.60086214 93.47173001 70.17267627 97.48361863 66.07617188 101.81420898 C59.06815972 106.01901628 49.03913111 104.69491686 41.13085938 104.73999023 C40.1270693 104.74610353 40.1270693 104.74610353 39.10300064 104.75234032 C35.56883315 104.77306686 32.03470307 104.78743254 28.50048828 104.796875 C24.86450306 104.80798518 21.22912204 104.8424751 17.59335136 104.8820467 C14.78112684 104.90822866 11.96904725 104.91656756 9.15671158 104.92015648 C7.16809607 104.92735543 5.17957984 104.95376737 3.19113159 104.98054504 C-7.97883702 104.95364942 -7.97883702 104.95364942 -12.73632812 100.50170898 C-16.80302755 95.8740855 -16.89223618 91.56708234 -16.91333008 85.63720703 C-16.91990128 84.83686035 -16.92647247 84.03651367 -16.9332428 83.21191406 C-16.95295874 80.56241766 -16.96463424 77.91297787 -16.97460938 75.26342773 C-16.9786849 74.35796518 -16.98276043 73.45250263 -16.98695946 72.51960182 C-17.00781236 67.72758843 -17.02211778 62.93560362 -17.03149414 58.14355469 C-17.04256039 53.19704337 -17.07696494 48.25098168 -17.11666584 43.30462933 C-17.14282301 39.49816558 -17.15118515 35.69180916 -17.15477562 31.88526344 C-17.15964346 30.06202976 -17.17126309 28.23880094 -17.18981361 26.41565514 C-17.21418756 23.8615399 -17.21324357 21.30859071 -17.20629883 18.75439453 C-17.21910889 18.00456802 -17.23191895 17.25474152 -17.24511719 16.48219299 C-17.1940813 11.32049922 -16.08791389 8.40852385 -12.73632812 4.50170898 C-8.44571006 0.94718417 -5.53107615 0.00079312 0 0 Z " fill="#FBAB3F" transform="translate(152.736328125,135.498291015625)"/>
<path d="M0 0 C4.46341087 3.02306065 7.39332313 7.3440319 9.08203125 12.41015625 C9.90478589 19.12707115 8.71242737 24.68145779 5.08203125 30.41015625 C2.43740091 33.31027307 -0.15403979 35.15551326 -3.91796875 36.41015625 C-3.28890625 36.54550781 -2.65984375 36.68085938 -2.01171875 36.8203125 C4.64607213 38.49478701 9.72327045 40.97428828 14.08203125 46.41015625 C16.67291632 51.55407126 17.44555279 55.23786862 17.375 61.09375 C17.36376099 63.01658813 17.36376099 63.01658813 17.35229492 64.97827148 C17.32498291 66.58516846 17.2976709 68.19206543 17.26953125 69.84765625 C17.20765625 74.98328125 17.14578125 80.11890625 17.08203125 85.41015625 C-1.39796875 85.41015625 -19.87796875 85.41015625 -38.91796875 85.41015625 C-38.97984375 80.46015625 -39.04171875 75.51015625 -39.10546875 70.41015625 C-39.13278076 68.86457031 -39.16009277 67.31898438 -39.18823242 65.7265625 C-39.27907898 50.70659806 -39.27907898 50.70659806 -34.19140625 44.203125 C-29.40723446 40.15725133 -25.01570251 37.89224432 -18.91796875 36.41015625 C-19.4490625 36.08144531 -19.98015625 35.75273437 -20.52734375 35.4140625 C-26.15827443 31.62243217 -29.16616618 28.02321095 -30.91796875 21.41015625 C-31.82784988 15.83713431 -31.08331653 11.20715047 -28.328125 6.26953125 C-21.15614019 -3.18715786 -10.42555505 -5.09409783 0 0 Z " fill="#315585" transform="translate(190.91796875,154.58984375)"/>
<path d="M0 0 C0.9451143 0.0015486 1.89022861 0.0030972 2.86398274 0.00469273 C3.85981281 0.00242718 4.85564288 0.00016162 5.88164961 -0.00217259 C9.24585376 -0.00854413 12.61001795 -0.00768122 15.97422749 -0.00685817 C18.37504081 -0.00984769 20.77585365 -0.01324973 23.17666584 -0.01703578 C29.03732454 -0.02497856 34.89797373 -0.02809134 40.75863671 -0.02864816 C45.52023018 -0.02912257 50.28182032 -0.03117353 55.04341274 -0.03434879 C68.52973189 -0.04315969 82.01604306 -0.04776748 95.5023651 -0.04701831 C96.23010118 -0.04697836 96.95783725 -0.0469384 97.70762593 -0.04689723 C98.80055575 -0.04683591 98.80055575 -0.04683591 99.91556496 -0.04677335 C111.72850778 -0.04636675 123.54141875 -0.05593863 135.35435235 -0.0700356 C147.4703889 -0.08438072 159.5864099 -0.09130681 171.70245516 -0.09044182 C178.51008473 -0.09010921 185.31768091 -0.09288443 192.12530285 -0.10361987 C198.52492755 -0.11364686 204.92449982 -0.11340864 211.32412869 -0.10610324 C213.67923672 -0.10505224 216.03434906 -0.10745056 218.38944966 -0.1134637 C221.59206442 -0.12111409 224.79443046 -0.11658532 227.99703938 -0.10883266 C228.93992296 -0.11397622 229.88280654 -0.11911978 230.85426235 -0.12441921 C231.70757627 -0.11982042 232.56089019 -0.11522162 233.44006211 -0.11048347 C234.17997468 -0.11070084 234.91988725 -0.1109182 235.68222141 -0.11114216 C237.49400288 0.1384055 237.49400288 0.1384055 239.49400288 2.1384055 C238.93844732 6.69396106 238.93844732 6.69396106 237.49400288 8.1384055 C234.36355542 8.24091904 231.2550257 8.27724852 228.12402302 8.27211827 C227.12819295 8.27438383 226.13236288 8.27664938 225.10635614 8.27898359 C221.742152 8.28535513 218.37798781 8.28449222 215.01377827 8.28366917 C212.61296495 8.28665869 210.21215211 8.29006074 207.81133991 8.29384679 C201.95068122 8.30178956 196.09003202 8.30490234 190.22936905 8.30545916 C185.46777558 8.30593357 180.70618543 8.30798453 175.94459301 8.31115979 C162.45827387 8.3199707 148.9719627 8.32457848 135.48564065 8.32382932 C134.75790458 8.32378936 134.03016851 8.3237494 133.28037983 8.32370824 C132.18745001 8.32364692 132.18745001 8.32364692 131.0724408 8.32358436 C119.25949798 8.32317776 107.44658701 8.33274963 95.63365341 8.3468466 C83.51761686 8.36119172 71.40159586 8.36811782 59.28555059 8.36725283 C52.47792103 8.36692021 45.67032485 8.36969543 38.86270291 8.38043088 C32.4630782 8.39045787 26.06350594 8.39021965 19.66387707 8.38291425 C17.30876904 8.38186324 14.95365669 8.38426156 12.5985561 8.3902747 C9.39594134 8.39792509 6.1935753 8.39339632 2.99096638 8.38564366 C2.0480828 8.39078722 1.10519922 8.39593079 0.13374341 8.40123022 C-0.71957051 8.39663142 -1.57288443 8.39203262 -2.45205635 8.38729447 C-3.19196892 8.38751184 -3.93188149 8.38772921 -4.69421566 8.38795316 C-6.50599712 8.1384055 -6.50599712 8.1384055 -8.50599712 6.1384055 C-7.71878502 -0.31673373 -6.27998659 0.02380314 0 0 Z " fill="#808080" transform="translate(132.50599712133408,443.8615944981575)"/>
<path d="M0 0 C1.05272145 -0.00339833 1.05272145 -0.00339833 2.12671 -0.00686532 C4.49591244 -0.01323314 6.86505809 -0.01237419 9.23426819 -0.0115509 C10.92573115 -0.01454066 12.61719342 -0.01794276 14.30865479 -0.02172852 C18.91602457 -0.03059131 23.5233758 -0.03290758 28.13075328 -0.0335443 C31.9704491 -0.03449149 35.81014055 -0.03816757 39.64983469 -0.0417164 C48.70499965 -0.04986959 57.76015467 -0.05229984 66.81532288 -0.05158997 C76.17146926 -0.05098891 85.52755803 -0.06154424 94.88368982 -0.07733363 C102.90321053 -0.09038753 110.92271237 -0.09577477 118.94224364 -0.09513456 C123.73779132 -0.09487894 128.53328785 -0.09776512 133.328825 -0.10831261 C137.83739844 -0.11795754 142.34587144 -0.11809771 146.85444832 -0.11079597 C148.51293203 -0.10974563 150.17142189 -0.11213948 151.82989502 -0.11815643 C154.08666795 -0.1258162 156.34308876 -0.121272 158.59985352 -0.11352539 C159.86509826 -0.11407016 161.130343 -0.11461493 162.43392849 -0.1151762 C165.36341858 0.13371277 165.36341858 0.13371277 167.36341858 2.13371277 C166.80786302 6.68926832 166.80786302 6.68926832 165.36341858 8.13371277 C163.15310103 8.23512453 160.93947798 8.26449397 158.72683716 8.26742554 C157.67411571 8.27082387 157.67411571 8.27082387 156.60012716 8.27429086 C154.23092472 8.28065868 151.86177906 8.27979973 149.49256897 8.27897644 C147.80110601 8.2819662 146.10964374 8.2853683 144.41818237 8.28915405 C139.81081259 8.29801685 135.20346136 8.30033312 130.59608388 8.30096984 C126.75638806 8.30191702 122.91669661 8.3055931 119.07700247 8.30914193 C110.0218375 8.31729513 100.96668249 8.31972538 91.91151428 8.3190155 C82.5553679 8.31841445 73.19927913 8.32896978 63.84314734 8.34475917 C55.82362662 8.35781306 47.80412479 8.36320031 39.78459352 8.36256009 C34.98904584 8.36230447 30.19354931 8.36519066 25.39801216 8.37573814 C20.88943872 8.38538308 16.38096572 8.38552325 11.87238884 8.37822151 C10.21390512 8.37717116 8.55541527 8.37956502 6.89694214 8.38558197 C4.6401692 8.39324173 2.3837484 8.38869754 0.12698364 8.38095093 C-1.1382611 8.3814957 -2.40350584 8.38204046 -3.70709133 8.38260174 C-6.63658142 8.13371277 -6.63658142 8.13371277 -8.63658142 6.13371277 C-7.83816407 -0.41330948 -6.30465031 0.00835314 0 0 Z " fill="#808080" transform="translate(132.63658142089844,355.8662872314453)"/>
<path d="M0 0 C1.05272145 -0.00339833 1.05272145 -0.00339833 2.12671 -0.00686532 C4.49591244 -0.01323314 6.86505809 -0.01237419 9.23426819 -0.0115509 C10.92573115 -0.01454066 12.61719342 -0.01794276 14.30865479 -0.02172852 C18.91602457 -0.03059131 23.5233758 -0.03290758 28.13075328 -0.0335443 C31.9704491 -0.03449149 35.81014055 -0.03816757 39.64983469 -0.0417164 C48.70499965 -0.04986959 57.76015467 -0.05229984 66.81532288 -0.05158997 C76.17146926 -0.05098891 85.52755803 -0.06154424 94.88368982 -0.07733363 C102.90321053 -0.09038753 110.92271237 -0.09577477 118.94224364 -0.09513456 C123.73779132 -0.09487894 128.53328785 -0.09776512 133.328825 -0.10831261 C137.83739844 -0.11795754 142.34587144 -0.11809771 146.85444832 -0.11079597 C148.51293203 -0.10974563 150.17142189 -0.11213948 151.82989502 -0.11815643 C154.08666795 -0.1258162 156.34308876 -0.121272 158.59985352 -0.11352539 C159.86509826 -0.11407016 161.130343 -0.11461493 162.43392849 -0.1151762 C165.36341858 0.13371277 165.36341858 0.13371277 167.36341858 2.13371277 C166.80786302 6.68926832 166.80786302 6.68926832 165.36341858 8.13371277 C163.15310103 8.23512453 160.93947798 8.26449397 158.72683716 8.26742554 C157.67411571 8.27082387 157.67411571 8.27082387 156.60012716 8.27429086 C154.23092472 8.28065868 151.86177906 8.27979973 149.49256897 8.27897644 C147.80110601 8.2819662 146.10964374 8.2853683 144.41818237 8.28915405 C139.81081259 8.29801685 135.20346136 8.30033312 130.59608388 8.30096984 C126.75638806 8.30191702 122.91669661 8.3055931 119.07700247 8.30914193 C110.0218375 8.31729513 100.96668249 8.31972538 91.91151428 8.3190155 C82.5553679 8.31841445 73.19927913 8.32896978 63.84314734 8.34475917 C55.82362662 8.35781306 47.80412479 8.36320031 39.78459352 8.36256009 C34.98904584 8.36230447 30.19354931 8.36519066 25.39801216 8.37573814 C20.88943872 8.38538308 16.38096572 8.38552325 11.87238884 8.37822151 C10.21390512 8.37717116 8.55541527 8.37956502 6.89694214 8.38558197 C4.6401692 8.39324173 2.3837484 8.38869754 0.12698364 8.38095093 C-1.1382611 8.3814957 -2.40350584 8.38204046 -3.70709133 8.38260174 C-6.63658142 8.13371277 -6.63658142 8.13371277 -8.63658142 6.13371277 C-7.83816407 -0.41330948 -6.30465031 0.00835314 0 0 Z " fill="#808080" transform="translate(132.63658142089844,331.8662872314453)"/>
<path d="M0 0 C1.05272145 -0.00339833 1.05272145 -0.00339833 2.12671 -0.00686532 C4.49591244 -0.01323314 6.86505809 -0.01237419 9.23426819 -0.0115509 C10.92573115 -0.01454066 12.61719342 -0.01794276 14.30865479 -0.02172852 C18.91602457 -0.03059131 23.5233758 -0.03290758 28.13075328 -0.0335443 C31.9704491 -0.03449149 35.81014055 -0.03816757 39.64983469 -0.0417164 C48.70499965 -0.04986959 57.76015467 -0.05229984 66.81532288 -0.05158997 C76.17146926 -0.05098891 85.52755803 -0.06154424 94.88368982 -0.07733363 C102.90321053 -0.09038753 110.92271237 -0.09577477 118.94224364 -0.09513456 C123.73779132 -0.09487894 128.53328785 -0.09776512 133.328825 -0.10831261 C137.83739844 -0.11795754 142.34587144 -0.11809771 146.85444832 -0.11079597 C148.51293203 -0.10974563 150.17142189 -0.11213948 151.82989502 -0.11815643 C154.08666795 -0.1258162 156.34308876 -0.121272 158.59985352 -0.11352539 C159.86509826 -0.11407016 161.130343 -0.11461493 162.43392849 -0.1151762 C165.36341858 0.13371277 165.36341858 0.13371277 167.36341858 2.13371277 C166.80786302 6.68926832 166.80786302 6.68926832 165.36341858 8.13371277 C163.15310103 8.23512453 160.93947798 8.26449397 158.72683716 8.26742554 C157.67411571 8.27082387 157.67411571 8.27082387 156.60012716 8.27429086 C154.23092472 8.28065868 151.86177906 8.27979973 149.49256897 8.27897644 C147.80110601 8.2819662 146.10964374 8.2853683 144.41818237 8.28915405 C139.81081259 8.29801685 135.20346136 8.30033312 130.59608388 8.30096984 C126.75638806 8.30191702 122.91669661 8.3055931 119.07700247 8.30914193 C110.0218375 8.31729513 100.96668249 8.31972538 91.91151428 8.3190155 C82.5553679 8.31841445 73.19927913 8.32896978 63.84314734 8.34475917 C55.82362662 8.35781306 47.80412479 8.36320031 39.78459352 8.36256009 C34.98904584 8.36230447 30.19354931 8.36519066 25.39801216 8.37573814 C20.88943872 8.38538308 16.38096572 8.38552325 11.87238884 8.37822151 C10.21390512 8.37717116 8.55541527 8.37956502 6.89694214 8.38558197 C4.6401692 8.39324173 2.3837484 8.38869754 0.12698364 8.38095093 C-1.1382611 8.3814957 -2.40350584 8.38204046 -3.70709133 8.38260174 C-6.63658142 8.13371277 -6.63658142 8.13371277 -8.63658142 6.13371277 C-7.83816407 -0.41330948 -6.30465031 0.00835314 0 0 Z " fill="#808080" transform="translate(132.63658142089844,307.8662872314453)"/>
<path d="M0 0 C1.10537109 0.00322266 2.21074219 0.00644531 3.34960938 0.00976562 C4.44337891 -0.00634766 5.53714844 -0.02246094 6.6640625 -0.0390625 C7.72173828 -0.03970703 8.77941406 -0.04035156 9.86914062 -0.04101562 C10.8356958 -0.04399658 11.80225098 -0.04697754 12.7980957 -0.05004883 C16.02821704 0.38902195 17.91308733 1.41829031 20.53710938 3.32226562 C22.40341853 7.05488393 21.76509843 11.52697347 21.78710938 15.63476562 C21.80773437 16.58544922 21.82835937 17.53613281 21.84960938 18.515625 C21.90140893 27.78126967 21.90140893 27.78126967 18.53710938 31.32226562 C15.34960938 32.63476562 15.34960938 32.63476562 12.53710938 33.32226562 C13.19839844 33.91394531 13.8596875 34.505625 14.54101562 35.11523438 C15.38535156 35.90542969 16.2296875 36.695625 17.09960938 37.50976562 C17.94652344 38.28707031 18.7934375 39.064375 19.66601562 39.86523438 C21.53710938 42.32226562 21.53710938 42.32226562 21.31445312 45.12304688 C21.05792969 45.84878906 20.80140625 46.57453125 20.53710938 47.32226562 C18.30004883 48.04858398 18.30004883 48.04858398 15.53710938 48.32226562 C13.40893555 46.87524414 13.40893555 46.87524414 11.33007812 44.70117188 C10.57919922 43.93095703 9.82832031 43.16074219 9.0546875 42.3671875 C8.28576172 41.54798828 7.51683594 40.72878906 6.72460938 39.88476562 C5.5422168 38.66176758 5.5422168 38.66176758 4.3359375 37.4140625 C2.38889629 35.39621979 0.45716587 33.36574754 -1.46289062 31.32226562 C-1.511875 32.381875 -1.56085938 33.44148438 -1.61132812 34.53320312 C-1.68635772 35.9212506 -1.76190547 37.30927013 -1.83789062 38.69726562 C-1.88429687 39.74527344 -1.88429687 39.74527344 -1.93164062 40.81445312 C-2.23632812 46.09570312 -2.23632812 46.09570312 -4.46289062 48.32226562 C-9.01844618 47.76671007 -9.01844618 47.76671007 -10.46289062 46.32226562 C-10.56601099 44.9516697 -10.60138015 43.57586904 -10.6081543 42.20141602 C-10.61453415 41.32703384 -10.620914 40.45265167 -10.62748718 39.55177307 C-10.62860001 38.60076218 -10.62971283 37.64975128 -10.63085938 36.66992188 C-10.63418777 35.69945419 -10.63751617 34.72898651 -10.64094543 33.72911072 C-10.64601893 31.67203243 -10.64835363 29.61494587 -10.64819336 27.55786133 C-10.65037889 24.40171819 -10.66852754 21.24592492 -10.6875 18.08984375 C-10.69043396 16.09570433 -10.69241874 14.10156323 -10.69335938 12.10742188 C-10.70054489 11.15843521 -10.70773041 10.20944855 -10.71513367 9.23170471 C-10.71205704 8.35417038 -10.70898041 7.47663605 -10.70581055 6.57250977 C-10.70723557 5.79831192 -10.70866058 5.02411407 -10.71012878 4.22645569 C-9.98964608 -1.32259068 -4.25628492 0.02863556 0 0 Z " fill="#315687" transform="translate(150.462890625,51.677734375)"/>
<path d="M0 0 C1.31109238 -0.00426498 2.62218475 -0.00852997 3.9730072 -0.01292419 C5.43965152 -0.01257463 6.90629581 -0.01211307 8.37294006 -0.0115509 C9.90676964 -0.01454074 11.44059845 -0.01794286 12.97442627 -0.02172852 C17.15205806 -0.03059051 21.32966939 -0.03290755 25.50730968 -0.0335443 C28.98911843 -0.03449157 32.47092237 -0.03816775 35.95272928 -0.0417164 C44.16409107 -0.0498693 52.37544188 -0.05229987 60.58680725 -0.05158997 C69.07045092 -0.05098893 77.55403105 -0.06154389 86.03765863 -0.07733363 C93.30983975 -0.09038864 100.58200004 -0.09577472 107.85419279 -0.09513456 C112.20261176 -0.09487897 116.55097429 -0.09776346 120.89938164 -0.10831261 C124.98772118 -0.1179594 129.07594996 -0.11809644 133.16429329 -0.11079597 C134.66797166 -0.10974586 136.1716568 -0.11213815 137.67532349 -0.11815643 C139.72176765 -0.12581893 141.76824918 -0.1200584 143.81469727 -0.11352539 C144.96195251 -0.11407016 146.10920774 -0.11461493 147.29122829 -0.1151762 C149.97084045 0.13371277 149.97084045 0.13371277 151.97084045 2.13371277 C151.4152849 6.68926832 151.4152849 6.68926832 149.97084045 8.13371277 C147.96317172 8.23483983 145.95189279 8.26448817 143.94168091 8.26742554 C142.63058853 8.27169052 141.31949615 8.27595551 139.96867371 8.28034973 C138.50202939 8.28000017 137.0353851 8.27953861 135.56874084 8.27897644 C134.03491127 8.28196628 132.50108245 8.2853684 130.96725464 8.28915405 C126.78962285 8.29801605 122.61201151 8.30033308 118.43437123 8.30096984 C114.95256248 8.30191711 111.47075853 8.30559329 107.98895162 8.30914193 C99.77758984 8.31729484 91.56623902 8.31972541 83.35487366 8.3190155 C74.87122999 8.31841447 66.38764986 8.32896942 57.90402228 8.34475917 C50.63184116 8.35781418 43.35968087 8.36320026 36.08748811 8.36256009 C31.73906915 8.3623045 27.39070661 8.365189 23.04229927 8.37573814 C18.95395973 8.38538494 14.86573095 8.38552198 10.77738762 8.37822151 C9.27370925 8.37717139 7.77002411 8.37956369 6.26635742 8.38558197 C4.21991326 8.39324447 2.17343172 8.38748394 0.12698364 8.38095093 C-1.59389922 8.38176808 -1.59389922 8.38176808 -3.34954739 8.38260174 C-6.02915955 8.13371277 -6.02915955 8.13371277 -8.02915955 6.13371277 C-7.26714284 -0.11482421 -6.03975635 0.00882543 0 0 Z " fill="#808080" transform="translate(132.02915954589844,419.8662872314453)"/>
<path d="M0 0 C3.75418541 1.47386538 4.9907736 4.20596142 6.82421875 7.59765625 C8.04346104 9.79045548 9.29760289 11.90971628 10.63671875 14.03515625 C11.29671875 14.03515625 11.95671875 14.03515625 12.63671875 14.03515625 C14.34824463 11.31862841 15.92497308 8.56745964 17.45117188 5.74414062 C19.11764707 2.84939964 20.11081699 1.24162139 23.2734375 0 C25.63671875 0.03515625 25.63671875 0.03515625 27.63671875 2.03515625 C27.89068604 3.93261719 27.89068604 3.93261719 27.89550781 6.26953125 C27.90181213 7.14383789 27.90811646 8.01814453 27.91461182 8.91894531 C27.91056335 9.86479492 27.90651489 10.81064453 27.90234375 11.78515625 C27.90521393 13.23873535 27.90521393 13.23873535 27.90814209 14.72167969 C27.90950454 16.7727891 27.90580393 18.82390711 27.89746094 20.875 C27.88676234 24.02233164 27.89735429 27.16909245 27.91015625 30.31640625 C27.90883467 32.30599085 27.9062723 34.29557509 27.90234375 36.28515625 C27.90639221 37.23100586 27.91044067 38.17685547 27.91461182 39.15136719 C27.9083075 40.02567383 27.90200317 40.89998047 27.89550781 41.80078125 C27.89391663 42.57196289 27.89232544 43.34314453 27.89068604 44.13769531 C27.63671875 46.03515625 27.63671875 46.03515625 25.63671875 48.03515625 C21.08116319 47.47960069 21.08116319 47.47960069 19.63671875 46.03515625 C19.47885567 44.18340919 19.38564519 42.32606515 19.3203125 40.46875 C19.27841797 39.34404297 19.23652344 38.21933594 19.19335938 37.06054688 C19.15404297 35.87654297 19.11472656 34.69253906 19.07421875 33.47265625 C19.03103516 32.28478516 18.98785156 31.09691406 18.94335938 29.87304688 C18.83688329 26.92720841 18.73487034 23.98128195 18.63671875 21.03515625 C16.98671875 23.34515625 15.33671875 25.65515625 13.63671875 28.03515625 C11.38671875 27.91015625 11.38671875 27.91015625 8.63671875 27.03515625 C7.24386483 25.07614228 5.90434131 23.07743704 4.63671875 21.03515625 C4.61689941 21.78200684 4.59708008 22.52885742 4.57666016 23.29833984 C4.48163664 26.6693123 4.37186616 30.03964554 4.26171875 33.41015625 C4.2153125 35.17359375 4.2153125 35.17359375 4.16796875 36.97265625 C4.10996094 38.65488281 4.10996094 38.65488281 4.05078125 40.37109375 C4.01936035 41.4079834 3.98793945 42.44487305 3.95556641 43.51318359 C3.63671875 46.03515625 3.63671875 46.03515625 1.63671875 48.03515625 C-2.91883681 47.47960069 -2.91883681 47.47960069 -4.36328125 46.03515625 C-4.46640162 44.66456032 -4.50177078 43.28875966 -4.50854492 41.91430664 C-4.51492477 41.03992447 -4.52130463 40.1655423 -4.52787781 39.2646637 C-4.52899063 38.3136528 -4.53010345 37.36264191 -4.53125 36.3828125 C-4.5345784 35.41234482 -4.5379068 34.44187714 -4.54133606 33.44200134 C-4.54640955 31.38492305 -4.54874426 29.3278365 -4.54858398 27.27075195 C-4.55076951 24.11460881 -4.56891816 20.95881554 -4.58789062 17.80273438 C-4.59082458 15.80859495 -4.59280936 13.81445386 -4.59375 11.8203125 C-4.60093552 10.87132584 -4.60812103 9.92233917 -4.61552429 8.94459534 C-4.61244766 8.067061 -4.60937103 7.18952667 -4.60620117 6.28540039 C-4.60762619 5.51120255 -4.60905121 4.7370047 -4.61051941 3.93934631 C-4.20801598 0.83932713 -3.04868233 0.0453523 0 0 Z " fill="#325787" transform="translate(304.36328125,51.96484375)"/>
<path d="M0 0 C1.15306641 0.00580078 2.30613281 0.01160156 3.49414062 0.01757812 C12.01755487 0.14255487 12.01755487 0.14255487 14.3125 2.4375 C13.75694444 6.99305556 13.75694444 6.99305556 12.3125 8.4375 C10.67777118 8.52450342 9.03935945 8.54451063 7.40234375 8.53515625 C6.41298828 8.53193359 5.42363281 8.52871094 4.40429688 8.52539062 C3.36337891 8.51701172 2.32246094 8.50863281 1.25 8.5 C0.20521484 8.49548828 -0.83957031 8.49097656 -1.91601562 8.48632812 C-4.50653454 8.47449927 -7.09702422 8.45656319 -9.6875 8.4375 C-9.6875 12.3975 -9.6875 16.3575 -9.6875 20.4375 C-7.82544922 20.38529297 -7.82544922 20.38529297 -5.92578125 20.33203125 C-4.28386774 20.30388416 -2.64193954 20.27658499 -1 20.25 C-0.18337891 20.22486328 0.63324219 20.19972656 1.47460938 20.17382812 C6.25265822 20.11579514 9.44673093 20.28846129 13.3125 23.4375 C14.9321057 26.6767114 14.53873755 30.19454381 14.5625 33.75 C14.583125 34.50990234 14.60375 35.26980469 14.625 36.05273438 C14.65695388 40.65009916 14.36784007 43.74682053 11.3125 47.4375 C6.41848066 49.06883978 1.37416204 48.62202602 -3.75 48.625 C-4.86439453 48.63724609 -5.97878906 48.64949219 -7.12695312 48.66210938 C-8.72120117 48.66500977 -8.72120117 48.66500977 -10.34765625 48.66796875 C-11.32355713 48.67207764 -12.29945801 48.67618652 -13.30493164 48.68041992 C-15.6875 48.4375 -15.6875 48.4375 -17.6875 46.4375 C-17.13194444 41.88194444 -17.13194444 41.88194444 -15.6875 40.4375 C-14.05277118 40.35049658 -12.41435945 40.33048937 -10.77734375 40.33984375 C-9.78798828 40.34306641 -8.79863281 40.34628906 -7.77929688 40.34960938 C-6.73837891 40.35798828 -5.69746094 40.36636719 -4.625 40.375 C-3.05782227 40.38176758 -3.05782227 40.38176758 -1.45898438 40.38867188 C1.13153454 40.40050073 3.72202422 40.41843681 6.3125 40.4375 C6.3125 36.4775 6.3125 32.5175 6.3125 28.4375 C4.98734375 28.47230469 3.6621875 28.50710937 2.296875 28.54296875 C0.55209602 28.57111035 -1.19269668 28.59841011 -2.9375 28.625 C-3.81019531 28.65013672 -4.68289062 28.67527344 -5.58203125 28.70117188 C-12.03819754 28.77509744 -12.03819754 28.77509744 -15.234375 27.11328125 C-18.45947849 23.39400867 -17.97588409 18.72401055 -18.0625 14.0625 C-18.09988281 13.30710937 -18.13726562 12.55171875 -18.17578125 11.7734375 C-18.23644259 7.91807228 -17.91171803 5.82773048 -15.95703125 2.42578125 C-10.83081637 -0.69159435 -5.87360038 -0.16914377 0 0 Z " fill="#325687" transform="translate(237.6875,51.5625)"/>
<path d="M0 0 C0.90721298 -0.00426498 1.81442596 -0.00852997 2.74913025 -0.01292419 C4.25384384 -0.01224442 4.25384384 -0.01224442 5.78895569 -0.0115509 C6.83927475 -0.01490952 7.88959381 -0.01826813 8.97174072 -0.02172852 C12.46298894 -0.03127075 15.95418937 -0.03318325 19.44544983 -0.03425598 C21.86061625 -0.03746622 24.27578248 -0.04083011 26.69094849 -0.04434204 C31.76105704 -0.05034147 36.83114852 -0.0521811 41.90126038 -0.05158997 C48.41298557 -0.05148828 54.92460187 -0.06514335 61.43630123 -0.08236217 C66.42641711 -0.09345498 71.41650643 -0.09551002 76.40663338 -0.09498024 C78.80810992 -0.09616436 81.20958707 -0.10061013 83.61105156 -0.10831261 C86.96340032 -0.11805801 90.31550972 -0.1152561 93.66786194 -0.10920715 C95.16953918 -0.11763641 95.16953918 -0.11763641 96.70155334 -0.12623596 C98.06660255 -0.11994423 98.06660255 -0.11994423 99.45922852 -0.11352539 C100.64915862 -0.11434254 100.64915862 -0.11434254 101.86312771 -0.1151762 C103.79310608 0.13371277 103.79310608 0.13371277 105.79310608 2.13371277 C105.23755052 6.68926832 105.23755052 6.68926832 103.79310608 8.13371277 C102.39365261 8.23349339 100.98921515 8.26446024 99.58621216 8.26742554 C98.22539268 8.27382301 98.22539268 8.27382301 96.83708191 8.28034973 C95.33236832 8.27966995 95.33236832 8.27966995 93.79725647 8.27897644 C92.22177788 8.28401436 92.22177788 8.28401436 90.61447144 8.28915405 C87.12322322 8.29869628 83.63202279 8.30060878 80.14076233 8.30168152 C77.7255959 8.30489176 75.31042968 8.30825565 72.89526367 8.31176758 C67.82515512 8.317767 62.75506364 8.31960664 57.68495178 8.3190155 C51.17322659 8.31891382 44.66161029 8.33256889 38.14991093 8.34978771 C33.15979505 8.36088052 28.16970573 8.36293555 23.17957878 8.36240578 C20.77810223 8.3635899 18.37662509 8.36803566 15.9751606 8.37573814 C12.62281184 8.38548355 9.27070244 8.38268164 5.91835022 8.37663269 C4.41667297 8.38506195 4.41667297 8.38506195 2.88465881 8.3936615 C1.5196096 8.38736977 1.5196096 8.38736977 0.12698364 8.38095093 C-1.06294646 8.38176808 -1.06294646 8.38176808 -2.27691555 8.38260174 C-4.20689392 8.13371277 -4.20689392 8.13371277 -6.20689392 6.13371277 C-5.57782314 0.97533237 -5.10611681 0.01079197 0 0 Z " fill="#305586" transform="translate(274.20689392089844,139.8662872314453)"/>
<path d="M0 0 C1.87171875 -0.00386719 1.87171875 -0.00386719 3.78125 -0.0078125 C5.74578125 0.00378906 5.74578125 0.00378906 7.75 0.015625 C9.0596875 0.00789063 10.369375 0.00015625 11.71875 -0.0078125 C12.9665625 -0.00523438 14.214375 -0.00265625 15.5 0 C16.64984375 0.00225586 17.7996875 0.00451172 18.984375 0.00683594 C21.75 0.265625 21.75 0.265625 23.75 2.265625 C23.19444444 6.82118056 23.19444444 6.82118056 21.75 8.265625 C20.11527118 8.35262842 18.47685945 8.37263563 16.83984375 8.36328125 C15.85048828 8.36005859 14.86113281 8.35683594 13.84179688 8.35351562 C12.80087891 8.34513672 11.75996094 8.33675781 10.6875 8.328125 C9.64271484 8.32361328 8.59792969 8.31910156 7.52148438 8.31445312 C4.93096546 8.30262427 2.34047578 8.28468819 -0.25 8.265625 C-0.25 12.225625 -0.25 16.185625 -0.25 20.265625 C0.73742187 20.24242188 1.72484375 20.21921875 2.7421875 20.1953125 C4.02351563 20.17726563 5.30484375 20.15921875 6.625 20.140625 C7.90117187 20.11742188 9.17734375 20.09421875 10.4921875 20.0703125 C13.75 20.265625 13.75 20.265625 15.75 22.265625 C15.19444444 26.82118056 15.19444444 26.82118056 13.75 28.265625 C11.39686445 28.33834241 9.04166332 28.34933368 6.6875 28.328125 C5.39714844 28.31910156 4.10679687 28.31007813 2.77734375 28.30078125 C1.77832031 28.28917969 0.77929688 28.27757813 -0.25 28.265625 C-0.25 32.225625 -0.25 36.185625 -0.25 40.265625 C1.31492187 40.24242187 2.87984375 40.21921875 4.4921875 40.1953125 C6.53645358 40.17655777 8.5807248 40.15835725 10.625 40.140625 C11.65753906 40.12386719 12.69007813 40.10710937 13.75390625 40.08984375 C15.23310547 40.08017578 15.23310547 40.08017578 16.7421875 40.0703125 C18.10899658 40.05460205 18.10899658 40.05460205 19.50341797 40.03857422 C21.75 40.265625 21.75 40.265625 23.75 42.265625 C23.19444444 46.82118056 23.19444444 46.82118056 21.75 48.265625 C17.10984675 48.5197805 12.45878694 48.45085298 7.8125 48.453125 C6.49830078 48.46537109 5.18410156 48.47761719 3.83007812 48.49023438 C2.57775391 48.49216797 1.32542969 48.49410156 0.03515625 48.49609375 C-1.69915649 48.50225708 -1.69915649 48.50225708 -3.46850586 48.50854492 C-6.25 48.265625 -6.25 48.265625 -8.25 46.265625 C-8.50396729 44.36816406 -8.50396729 44.36816406 -8.50878906 42.03125 C-8.51509338 41.15694336 -8.52139771 40.28263672 -8.52789307 39.38183594 C-8.5238446 38.43598633 -8.51979614 37.49013672 -8.515625 36.515625 C-8.51753845 35.54657227 -8.5194519 34.57751953 -8.52142334 33.57910156 C-8.52278579 31.52799215 -8.51908518 29.47687414 -8.51074219 27.42578125 C-8.50004359 24.27844961 -8.51063554 21.1316888 -8.5234375 17.984375 C-8.52211592 15.9947904 -8.51955355 14.00520616 -8.515625 12.015625 C-8.51967346 11.06977539 -8.52372192 10.12392578 -8.52789307 9.14941406 C-8.52158875 8.27510742 -8.51528442 7.40080078 -8.50878906 6.5 C-8.50719788 5.72881836 -8.50560669 4.95763672 -8.50396729 4.16308594 C-7.85121404 -0.71381697 -3.96904133 0.0077868 0 0 Z " fill="#315686" transform="translate(348.25,51.734375)"/>
<path d="M0 0 C1.87171875 -0.00386719 1.87171875 -0.00386719 3.78125 -0.0078125 C5.74578125 0.00378906 5.74578125 0.00378906 7.75 0.015625 C9.0596875 0.00789063 10.369375 0.00015625 11.71875 -0.0078125 C12.9665625 -0.00523438 14.214375 -0.00265625 15.5 0 C16.64984375 0.00225586 17.7996875 0.00451172 18.984375 0.00683594 C21.75 0.265625 21.75 0.265625 23.75 2.265625 C23.19444444 6.82118056 23.19444444 6.82118056 21.75 8.265625 C20.11527118 8.35262842 18.47685945 8.37263563 16.83984375 8.36328125 C15.85048828 8.36005859 14.86113281 8.35683594 13.84179688 8.35351562 C12.80087891 8.34513672 11.75996094 8.33675781 10.6875 8.328125 C9.64271484 8.32361328 8.59792969 8.31910156 7.52148438 8.31445312 C4.93096546 8.30262427 2.34047578 8.28468819 -0.25 8.265625 C-0.25 12.225625 -0.25 16.185625 -0.25 20.265625 C0.73742187 20.24242188 1.72484375 20.21921875 2.7421875 20.1953125 C4.02351562 20.17726563 5.30484375 20.15921875 6.625 20.140625 C7.90117187 20.11742188 9.17734375 20.09421875 10.4921875 20.0703125 C13.75 20.265625 13.75 20.265625 15.75 22.265625 C15.19444444 26.82118056 15.19444444 26.82118056 13.75 28.265625 C11.39686445 28.33834241 9.04166332 28.34933368 6.6875 28.328125 C5.39714844 28.31910156 4.10679687 28.31007813 2.77734375 28.30078125 C1.77832031 28.28917969 0.77929688 28.27757813 -0.25 28.265625 C-0.25 32.225625 -0.25 36.185625 -0.25 40.265625 C1.31492188 40.24242187 2.87984375 40.21921875 4.4921875 40.1953125 C6.53645358 40.17655777 8.5807248 40.15835725 10.625 40.140625 C11.65753906 40.12386719 12.69007813 40.10710937 13.75390625 40.08984375 C15.23310547 40.08017578 15.23310547 40.08017578 16.7421875 40.0703125 C18.10899658 40.05460205 18.10899658 40.05460205 19.50341797 40.03857422 C21.75 40.265625 21.75 40.265625 23.75 42.265625 C23.19444444 46.82118056 23.19444444 46.82118056 21.75 48.265625 C17.10984675 48.5197805 12.45878694 48.45085298 7.8125 48.453125 C6.49830078 48.46537109 5.18410156 48.47761719 3.83007812 48.49023438 C2.57775391 48.49216797 1.32542969 48.49410156 0.03515625 48.49609375 C-1.69915649 48.50225708 -1.69915649 48.50225708 -3.46850586 48.50854492 C-6.25 48.265625 -6.25 48.265625 -8.25 46.265625 C-8.50396729 44.36816406 -8.50396729 44.36816406 -8.50878906 42.03125 C-8.51509338 41.15694336 -8.52139771 40.28263672 -8.52789307 39.38183594 C-8.5238446 38.43598633 -8.51979614 37.49013672 -8.515625 36.515625 C-8.51753845 35.54657227 -8.5194519 34.57751953 -8.52142334 33.57910156 C-8.52278579 31.52799215 -8.51908518 29.47687414 -8.51074219 27.42578125 C-8.50004359 24.27844961 -8.51063554 21.1316888 -8.5234375 17.984375 C-8.52211592 15.9947904 -8.51955355 14.00520616 -8.515625 12.015625 C-8.51967346 11.06977539 -8.52372192 10.12392578 -8.52789307 9.14941406 C-8.52158875 8.27510742 -8.51528442 7.40080078 -8.50878906 6.5 C-8.50719788 5.72881836 -8.50560669 4.95763672 -8.50396729 4.16308594 C-7.85121404 -0.71381697 -3.96904133 0.0077868 0 0 Z " fill="#315686" transform="translate(188.25,51.734375)"/>
<path d="M0 0 C4.55555556 0.55555556 4.55555556 0.55555556 6 2 C6.08861992 4.8116338 6.11522355 7.59858255 6.09765625 10.41015625 C6.0962413 11.25219101 6.09482635 12.09422577 6.09336853 12.96177673 C6.08775263 15.66205335 6.07519748 18.36224828 6.0625 21.0625 C6.05748705 22.88867068 6.05292379 24.71484266 6.04882812 26.54101562 C6.03777804 31.02737542 6.02050279 35.51367384 6 40 C11.28 40 16.56 40 22 40 C21.98952637 38.85934082 21.97905273 37.71868164 21.96826172 36.54345703 C21.93212283 32.32050706 21.90912188 28.09757081 21.89013672 23.87451172 C21.88006516 22.04506127 21.86640724 20.21562697 21.84912109 18.38623047 C21.82492323 15.76005066 21.81352868 13.13408325 21.8046875 10.5078125 C21.79436493 9.68693146 21.78404236 8.86605042 21.77340698 8.02029419 C21.77300816 6.01210858 21.8775046 4.00444618 22 2 C22.66 1.34 23.32 0.68 24 0 C28.55555556 0.55555556 28.55555556 0.55555556 30 2 C30.12602569 4.89859085 30.18869581 7.77201724 30.203125 10.671875 C30.20882507 11.54644348 30.21452515 12.42101196 30.22039795 13.32208252 C30.22986503 15.17825098 30.23638868 17.03443638 30.24023438 18.890625 C30.24991209 21.72426001 30.28090737 24.55716129 30.3125 27.390625 C30.31903261 29.19270402 30.32428207 30.99478824 30.328125 32.796875 C30.3404718 33.64288269 30.3528186 34.48889038 30.36553955 35.36053467 C30.34796568 40.02893421 30.13290807 43.26510374 27 47 C22.56039131 48.47986956 18.21322847 48.22497927 13.5625 48.25 C12.60794922 48.270625 11.65339844 48.29125 10.66992188 48.3125 C9.74888672 48.31765625 8.82785156 48.3228125 7.87890625 48.328125 C7.0391626 48.3374707 6.19941895 48.34681641 5.33422852 48.35644531 C2.44742792 47.9156202 1.1057398 46.99722064 -1 45 C-2.32810537 41.01568388 -2.16254999 37.18186902 -2.16796875 33.02734375 C-2.17129715 32.14849014 -2.17462555 31.26963654 -2.17805481 30.364151 C-2.18311548 28.50733972 -2.1854634 26.65051935 -2.18530273 24.79370117 C-2.18749423 21.94499893 -2.20567259 19.09668084 -2.22460938 16.24804688 C-2.22754241 14.44531383 -2.22952781 12.64257894 -2.23046875 10.83984375 C-2.23765427 9.98462631 -2.24483978 9.12940887 -2.25224304 8.24827576 C-2.22883002 2.22883002 -2.22883002 2.22883002 0 0 Z " fill="#315686" transform="translate(262,52)"/>
<path d="M0 0 C0.70391876 0.00045319 1.40783752 0.00090637 2.13308716 0.00137329 C3.24039436 -0.00366463 3.24039436 -0.00366463 4.37007141 -0.00880432 C6.82242492 -0.01834185 9.27471037 -0.02025883 11.7270813 -0.02133179 C13.42479989 -0.02454243 15.12251821 -0.02790635 16.82023621 -0.03141785 C20.38383628 -0.03741614 23.94741208 -0.03925703 27.51101685 -0.03866577 C32.08566799 -0.03856411 36.66016405 -0.05221724 41.2347784 -0.06943798 C44.74255595 -0.08053648 48.25029575 -0.08258564 51.75808907 -0.08205605 C53.445049 -0.08323938 55.13200982 -0.08768082 56.81895256 -0.09538841 C59.1750778 -0.10514513 61.53086313 -0.10232757 63.88699341 -0.09628296 C64.58888794 -0.10190247 65.29078247 -0.10752197 66.01394653 -0.11331177 C70.84642177 -0.08167881 70.84642177 -0.08167881 73.07473755 2.14663696 C72.51918199 6.70219252 72.51918199 6.70219252 71.07473755 8.14663696 C68.71251537 8.25220313 66.37938371 8.29342194 64.01638794 8.29190063 C62.90908073 8.29693855 62.90908073 8.29693855 61.77940369 8.30207825 C59.32705017 8.31161578 56.87476473 8.31353276 54.4223938 8.31460571 C52.7246752 8.31781636 51.02695689 8.32118028 49.32923889 8.32469177 C45.76563882 8.33069007 42.20206302 8.33253096 38.63845825 8.3319397 C34.06380711 8.33183804 29.48931105 8.34549116 24.91469669 8.36271191 C21.40691915 8.37381041 17.89917934 8.37585957 14.39138603 8.37532997 C12.7044261 8.37651331 11.01746528 8.38095474 9.33052254 8.38866234 C6.97439729 8.39841905 4.61861197 8.39560149 2.26248169 8.38955688 C1.56058716 8.39517639 0.85869263 8.4007959 0.13552856 8.40658569 C-4.69694668 8.37495274 -4.69694668 8.37495274 -6.92526245 6.14663696 C-6.24288588 0.55114908 -5.55042084 0.03710649 0 0 Z " fill="#305586" transform="translate(162.92526245117188,387.8533630371094)"/>
<path d="M0 0 C0.70391876 0.00045319 1.40783752 0.00090637 2.13308716 0.00137329 C3.24039436 -0.00366463 3.24039436 -0.00366463 4.37007141 -0.00880432 C6.82242492 -0.01834185 9.27471037 -0.02025883 11.7270813 -0.02133179 C13.42479989 -0.02454243 15.12251821 -0.02790635 16.82023621 -0.03141785 C20.38383628 -0.03741614 23.94741208 -0.03925703 27.51101685 -0.03866577 C32.08566799 -0.03856411 36.66016405 -0.05221724 41.2347784 -0.06943798 C44.74255595 -0.08053648 48.25029575 -0.08258564 51.75808907 -0.08205605 C53.445049 -0.08323938 55.13200982 -0.08768082 56.81895256 -0.09538841 C59.1750778 -0.10514513 61.53086313 -0.10232757 63.88699341 -0.09628296 C64.58888794 -0.10190247 65.29078247 -0.10752197 66.01394653 -0.11331177 C70.84642177 -0.08167881 70.84642177 -0.08167881 73.07473755 2.14663696 C72.51918199 6.70219252 72.51918199 6.70219252 71.07473755 8.14663696 C68.71251537 8.25220313 66.37938371 8.29342194 64.01638794 8.29190063 C62.90908073 8.29693855 62.90908073 8.29693855 61.77940369 8.30207825 C59.32705017 8.31161578 56.87476473 8.31353276 54.4223938 8.31460571 C52.7246752 8.31781636 51.02695689 8.32118028 49.32923889 8.32469177 C45.76563882 8.33069007 42.20206302 8.33253096 38.63845825 8.3319397 C34.06380711 8.33183804 29.48931105 8.34549116 24.91469669 8.36271191 C21.40691915 8.37381041 17.89917934 8.37585957 14.39138603 8.37532997 C12.7044261 8.37651331 11.01746528 8.38095474 9.33052254 8.38866234 C6.97439729 8.39841905 4.61861197 8.39560149 2.26248169 8.38955688 C1.56058716 8.39517639 0.85869263 8.4007959 0.13552856 8.40658569 C-4.69694668 8.37495274 -4.69694668 8.37495274 -6.92526245 6.14663696 C-6.24288588 0.55114908 -5.55042084 0.03710649 0 0 Z " fill="#305586" transform="translate(162.92526245117188,275.8533630371094)"/>
<path d="M0 0 C1.1947142 -0.00637985 2.38942841 -0.0127597 3.62034607 -0.01933289 C4.92133743 -0.02044571 6.2223288 -0.02155853 7.56274414 -0.02270508 C8.90173886 -0.02591608 10.24073321 -0.02928003 11.57972717 -0.03279114 C14.39007379 -0.03878841 17.20038962 -0.04063043 20.01074219 -0.04003906 C23.61686399 -0.03993742 27.22278897 -0.05358878 30.8288641 -0.07081127 C33.59547334 -0.08191492 36.36203477 -0.08395878 39.12866402 -0.08342934 C41.10629354 -0.08518822 43.08390813 -0.09603985 45.06150818 -0.10697937 C46.25937454 -0.10390274 47.45724091 -0.10082611 48.69140625 -0.09765625 C50.27906044 -0.09979378 50.27906044 -0.09979378 51.89878845 -0.10197449 C54.41040039 0.14526367 54.41040039 0.14526367 56.41040039 2.14526367 C55.85484484 6.70081923 55.85484484 6.70081923 54.41040039 8.14526367 C52.54949463 8.24960986 50.68461763 8.28381004 48.82080078 8.29052734 C47.62608658 8.2969072 46.43137238 8.30328705 45.20045471 8.30986023 C43.89946335 8.31097305 42.59847198 8.31208588 41.25805664 8.31323242 C39.91906193 8.31644343 38.58006757 8.31980738 37.24107361 8.32331848 C34.43072699 8.32931576 31.62041116 8.33115778 28.81005859 8.33056641 C25.20393679 8.33046477 21.59801181 8.34411612 17.99193668 8.36133862 C15.22532744 8.37244226 12.45876601 8.37448612 9.69213676 8.37395668 C7.71450725 8.37571557 5.73689265 8.38656719 3.7592926 8.39750671 C2.56142624 8.39443008 1.36355988 8.39135345 0.12939453 8.38818359 C-1.45825966 8.39032112 -1.45825966 8.39032112 -3.07798767 8.39250183 C-5.58959961 8.14526367 -5.58959961 8.14526367 -7.58959961 6.14526367 C-6.85629136 0.13213606 -5.83183936 0.02101829 0 0 Z " fill="#808080" transform="translate(275.589599609375,219.854736328125)"/>
<path d="M0 0 C1.1947142 -0.00637985 2.38942841 -0.0127597 3.62034607 -0.01933289 C4.92133743 -0.02044571 6.2223288 -0.02155853 7.56274414 -0.02270508 C8.90173886 -0.02591608 10.24073321 -0.02928003 11.57972717 -0.03279114 C14.39007379 -0.03878841 17.20038962 -0.04063043 20.01074219 -0.04003906 C23.61686399 -0.03993742 27.22278897 -0.05358878 30.8288641 -0.07081127 C33.59547334 -0.08191492 36.36203477 -0.08395878 39.12866402 -0.08342934 C41.10629354 -0.08518822 43.08390813 -0.09603985 45.06150818 -0.10697937 C46.25937454 -0.10390274 47.45724091 -0.10082611 48.69140625 -0.09765625 C50.27906044 -0.09979378 50.27906044 -0.09979378 51.89878845 -0.10197449 C54.41040039 0.14526367 54.41040039 0.14526367 56.41040039 2.14526367 C55.85484484 6.70081923 55.85484484 6.70081923 54.41040039 8.14526367 C52.54949463 8.24960986 50.68461763 8.28381004 48.82080078 8.29052734 C47.62608658 8.2969072 46.43137238 8.30328705 45.20045471 8.30986023 C43.89946335 8.31097305 42.59847198 8.31208588 41.25805664 8.31323242 C39.91906193 8.31644343 38.58006757 8.31980738 37.24107361 8.32331848 C34.43072699 8.32931576 31.62041116 8.33115778 28.81005859 8.33056641 C25.20393679 8.33046477 21.59801181 8.34411612 17.99193668 8.36133862 C15.22532744 8.37244226 12.45876601 8.37448612 9.69213676 8.37395668 C7.71450725 8.37571557 5.73689265 8.38656719 3.7592926 8.39750671 C2.56142624 8.39443008 1.36355988 8.39135345 0.12939453 8.38818359 C-1.45825966 8.39032112 -1.45825966 8.39032112 -3.07798767 8.39250183 C-5.58959961 8.14526367 -5.58959961 8.14526367 -7.58959961 6.14526367 C-6.85629136 0.13213606 -5.83183936 0.02101829 0 0 Z " fill="#808080" transform="translate(275.589599609375,195.854736328125)"/>
<path d="M0 0 C1.1947142 -0.00637985 2.38942841 -0.0127597 3.62034607 -0.01933289 C4.92133743 -0.02044571 6.2223288 -0.02155853 7.56274414 -0.02270508 C8.90173886 -0.02591608 10.24073321 -0.02928003 11.57972717 -0.03279114 C14.39007379 -0.03878841 17.20038962 -0.04063043 20.01074219 -0.04003906 C23.61686399 -0.03993742 27.22278897 -0.05358878 30.8288641 -0.07081127 C33.59547334 -0.08191492 36.36203477 -0.08395878 39.12866402 -0.08342934 C41.10629354 -0.08518822 43.08390813 -0.09603985 45.06150818 -0.10697937 C46.25937454 -0.10390274 47.45724091 -0.10082611 48.69140625 -0.09765625 C50.27906044 -0.09979378 50.27906044 -0.09979378 51.89878845 -0.10197449 C54.41040039 0.14526367 54.41040039 0.14526367 56.41040039 2.14526367 C55.85484484 6.70081923 55.85484484 6.70081923 54.41040039 8.14526367 C52.54949463 8.24960986 50.68461763 8.28381004 48.82080078 8.29052734 C47.62608658 8.2969072 46.43137238 8.30328705 45.20045471 8.30986023 C43.89946335 8.31097305 42.59847198 8.31208588 41.25805664 8.31323242 C39.91906193 8.31644343 38.58006757 8.31980738 37.24107361 8.32331848 C34.43072699 8.32931576 31.62041116 8.33115778 28.81005859 8.33056641 C25.20393679 8.33046477 21.59801181 8.34411612 17.99193668 8.36133862 C15.22532744 8.37244226 12.45876601 8.37448612 9.69213676 8.37395668 C7.71450725 8.37571557 5.73689265 8.38656719 3.7592926 8.39750671 C2.56142624 8.39443008 1.36355988 8.39135345 0.12939453 8.38818359 C-1.45825966 8.39032112 -1.45825966 8.39032112 -3.07798767 8.39250183 C-5.58959961 8.14526367 -5.58959961 8.14526367 -7.58959961 6.14526367 C-6.85629136 0.13213606 -5.83183936 0.02101829 0 0 Z " fill="#808080" transform="translate(275.589599609375,171.854736328125)"/>
<path d="M0 0 C5.28 0 10.56 0 16 0 C16 5.28 16 10.56 16 16 C12.596875 16.2165625 12.596875 16.2165625 9.125 16.4375 C4.39831627 16.58303741 4.39831627 16.58303741 0 18 C0 12.06 0 6.12 0 0 Z " fill="#E5E5E5" transform="translate(148,60)"/>
<path d="M0 0 C4.0743356 0.84881992 5.54405875 2.30225596 8 5.625 C8.625 8.625 8.625 8.625 8 11.625 C5.54405875 14.94774404 4.0743356 16.40118008 0 17.25 C-4.0743356 16.40118008 -5.54405875 14.94774404 -8 11.625 C-8.625 8.625 -8.625 8.625 -8 5.625 C-5.54405875 2.30225596 -4.0743356 0.84881992 0 0 Z " fill="#385B8A" transform="translate(136,383.375)"/>
<path d="M0 0 C4.0743356 0.84881992 5.54405875 2.30225596 8 5.625 C8.625 8.625 8.625 8.625 8 11.625 C5.54405875 14.94774404 4.0743356 16.40118008 0 17.25 C-4.0743356 16.40118008 -5.54405875 14.94774404 -8 11.625 C-8.625 8.625 -8.625 8.625 -8 5.625 C-5.54405875 2.30225596 -4.0743356 0.84881992 0 0 Z " fill="#385B8A" transform="translate(136,271.375)"/>
</svg>
